<?xml version="1.0" standalone="no"?>
<!DOCTYPE svg PUBLIC "-//W3C//DTD SVG 20010904//EN"
 "http://www.w3.org/TR/2001/REC-SVG-20010904/DTD/svg10.dtd">
<svg version="1.0" xmlns="http://www.w3.org/2000/svg"
 width="600.000000pt" height="600.000000pt" viewBox="0 0 600.000000 600.000000"
 preserveAspectRatio="xMidYMid meet">
<metadata>
Created by potrace 1.15, written by Peter Selinger 2001-2017
</metadata>
<g transform="translate(0.000000,600.000000) scale(0.100000,-0.100000)"
fill="#000000" stroke="none">

<path fill="#237398" d="M2520 5954 c-113 -17 -273 -53 -284 -64 -5 -5 -4 -27 2 -52 22 -85
279 -1042 363 -1353 28 -104 66 -248 84 -320 18 -71 56 -213 85 -315 28 -102
69 -252 90 -335 59 -230 92 -349 101 -359 17 -20 25 6 18 61 -8 66 -31 233
-88 653 -22 162 -49 367 -60 455 -11 88 -45 345 -75 570 -31 226 -65 482 -76
570 -12 88 -23 178 -26 200 -31 222 -43 297 -46 299 -1 1 -41 -3 -88 -10z"/>

<path fill="#6DA3C7" d="M1750 5747 c-110 -49 -222 -107 -242 -125 -10 -8 -18 -23 -18 -33 0
-10 107 -204 238 -431 132 -227 351 -606 487 -843 607 -1051 677 -1171 689
-1184 9 -8 22 -10 36 -6 17 5 21 13 17 33 -2 15 -228 565 -502 1222 -274 657
-516 1240 -539 1295 -49 119 -54 121 -166 72z"/>

<path fill="#237398" d="M1075 5294 c-49 -41 -114 -99 -143 -127 l-52 -52 1007 -1007 c554
-554 1011 -1004 1016 -1001 4 3 6 12 3 20 -3 8 -244 323 -534 701 -291 378
-676 878 -856 1112 -180 234 -332 426 -339 428 -7 1 -52 -32 -102 -74z"/>

<path fill="#6DA3C7" d="M556 4763 c-92 -125 -170 -255 -160 -270 15 -24 2447 -1424 2469
-1421 11 2 21 10 23 20 4 19 -2236 1738 -2265 1738 -11 0 -38 -28 -67 -67z"/>

<path fill="#237398" d="M233 4138 c-15 -20 -57 -131 -93 -247 -36 -118 -35 -122 38 -136 20
-4 159 -40 307 -80 256 -69 482 -130 1120 -300 616 -165 859 -230 1045 -281
121 -33 199 -49 204 -43 16 15 -3 27 -155 88 -79 33 -238 98 -354 146 -115 47
-295 122 -400 165 -104 43 -284 117 -400 165 -115 48 -246 102 -290 120 -207
84 -782 322 -887 366 -64 27 -118 49 -121 49 -2 0 -9 -6 -14 -12z"/>

<path fill="#6DA3C7" d="M16 3388 c-4 -13 -10 -107 -13 -211 l-6 -187 1429 2 1429 3 3 21 c4
27 41 20 -493 89 -236 31 -632 83 -880 115 -247 33 -540 71 -650 85 -110 13
-335 43 -499 65 -165 22 -303 40 -307 40 -4 0 -10 -10 -13 -22z"/>

<path fill="#237398" d="M1415 2803 c-759 -102 -1381 -186 -1383 -188 -5 -4 33 -224 53 -313
13 -55 21 -72 34 -72 9 0 527 137 1151 304 624 167 1233 330 1352 362 119 31
222 61 229 65 19 11 0 29 -29 28 -15 -1 -648 -85 -1407 -186z"/>

<path fill="#6DA3C7" d="M2365 2761 c-247 -104 -729 -304 -1070 -446 -341 -142 -687 -286
-770 -320 -82 -35 -185 -77 -227 -95 -51 -21 -78 -37 -78 -48 0 -8 37 -91 82
-184 69 -142 85 -168 104 -168 12 0 116 54 230 120 1786 1028 2229 1287 2232
1308 3 18 -1 22 -25 21 -15 0 -230 -85 -478 -188z"/>

<path fill="#237398" d="M1755 2048 c-621 -478 -1132 -874 -1133 -879 -7 -18 239 -299 261
-299 7 0 465 453 1019 1008 863 863 1005 1009 995 1023 -10 14 -162 -100
-1142 -853z"/>

<path fill="#6DA3C7" d="M2329 2143 c-310 -405 -600 -785 -645 -843 -44 -58 -178 -233 -297
-388 -119 -156 -217 -289 -217 -295 1 -25 321 -232 345 -223 6 2 41 55 77 118
35 62 351 610 702 1217 408 707 636 1111 634 1124 -2 12 -10 23 -19 25 -10 2
-203 -242 -580 -735z"/>

<path fill="#237398" d="M2867 2688 c-36 -90 -100 -246 -142 -348 -42 -102 -112 -270 -155
-375 -43 -104 -117 -284 -165 -400 -47 -115 -117 -284 -154 -375 -82 -198
-264 -639 -334 -805 -67 -161 -67 -163 8 -192 92 -36 294 -95 304 -88 5 3 13
20 16 38 4 17 40 154 80 302 40 149 107 401 150 560 43 160 110 412 150 560
40 149 108 401 150 560 43 160 104 385 135 500 53 198 57 224 29 225 -3 0 -35
-73 -72 -162z"/>

<path fill="#6DA3C7" d="M2965 2818 c-3 -13 -28 -198 -55 -413 -55 -419 -167 -1283 -255
-1959 -35 -262 -52 -423 -46 -429 5 -5 100 -12 210 -15 l201 -5 0 1422 0 1421
-25 0 c-17 0 -26 -7 -30 -22z"/>

<path fill="#237398" d="M3020 2826 c0 -43 370 -2790 377 -2796 15 -13 340 53 370 75 14 11
-23 155 -348 1371 -297 1107 -367 1359 -382 1362 -10 2 -17 -3 -17 -12z"/>

<path fill="#6DA3C7" d="M3060 2839 c0 -19 96 -254 575 -1404 89 -214 238 -573 331 -797 151
-364 171 -408 191 -408 13 0 96 37 185 83 132 66 163 86 162 103 0 11 -315
565 -699 1232 -605 1048 -703 1212 -722 1212 -17 0 -23 -6 -23 -21z"/>

<path fill="#237398" d="M3105 2871 c-3 -6 23 -47 57 -92 35 -45 88 -114 118 -154 30 -40 107
-139 170 -220 114 -147 194 -251 300 -391 70 -92 269 -349 433 -562 71 -91
146 -188 167 -216 41 -55 254 -332 372 -485 40 -51 80 -103 89 -114 l17 -21
48 39 c94 77 244 216 244 228 0 15 -1982 1997 -1997 1997 -6 0 -14 -4 -18 -9z"/>

<path fill="#6DA3C7" d="M3137 2913 c-4 -3 -7 -13 -7 -22 1 -9 148 -128 333 -268 183 -139
685 -523 1116 -853 431 -330 790 -600 797 -600 27 0 231 317 221 343 -3 8 -47
38 -98 67 -52 30 -595 343 -1208 697 -613 354 -1121 643 -1131 643 -9 0 -20
-3 -23 -7z"/>

<path fill="#237398" d="M3160 2952 c0 -18 25 -31 195 -100 55 -22 233 -95 395 -162 275 -114
357 -148 710 -293 74 -30 398 -164 719 -296 470 -195 587 -239 597 -229 21 23
132 353 122 363 -4 4 -249 71 -938 255 -426 114 -792 212 -1230 330 -357 96
-561 150 -567 150 -2 0 -3 -8 -3 -18z"/>

<path fill="#6DA3C7" d="M3228 3022 c-60 -3 -68 -5 -68 -23 0 -26 26 -35 135 -48 148 -18 847
-108 1370 -176 1332 -175 1302 -171 1311 -162 11 10 23 161 23 290 l1 117
-1317 1 c-725 1 -1334 2 -1353 3 -19 1 -65 0 -102 -2z"/>

<path fill="#237398" d="M5575 3703 c-494 -133 -1325 -356 -1770 -474 -530 -141 -552 -147
-602 -159 -32 -8 -43 -16 -43 -30 0 -11 2 -20 5 -20 16 0 2792 371 2801 374 8
3 8 25 -1 83 -19 119 -57 282 -69 297 -9 10 -73 -4 -321 -71z"/>

<path fill="#6DA3C7" d="M4715 4014 c-473 -273 -1021 -589 -1217 -702 -313 -181 -358 -210
-358 -231 0 -20 4 -23 28 -18 15 4 605 247 1312 541 1024 426 1286 538 1288
553 4 26 -159 347 -178 351 -9 1 -402 -221 -875 -494z"/>

<path fill="#237398" d="M4117 4112 c-543 -543 -987 -993 -987 -1001 0 -7 6 -11 14 -8 15 6
2180 1668 2210 1697 19 18 18 20 -39 91 -79 98 -185 209 -199 209 -6 0 -455
-444 -999 -988z"/>

<path fill="#6DA3C7" d="M4436 5508 c-388 -662 -1356 -2355 -1354 -2367 2 -9 12 -17 23 -18
16 -2 88 87 326 400 169 221 553 723 853 1116 300 392 546 721 546 730 0 9
-21 33 -47 53 -81 61 -264 178 -279 178 -7 0 -38 -42 -68 -92z"/>

<path fill="#237398" d="M3411 4520 c-201 -748 -361 -1363 -358 -1367 4 -3 9 -4 12 -1 3 3 77
178 164 389 87 211 328 794 535 1296 207 502 376 915 376 917 0 12 -321 126
-352 126 -9 0 -132 -443 -377 -1360z"/>

<path fill="#6DA3C7" d="M2990 4574 l0 -1425 22 3 c25 3 7 -118 237 1648 45 344 97 746 117
894 19 148 31 272 27 276 -12 11 -214 30 -315 30 l-88 0 0 -1426z"/>

<path fill="#09CAC5" d="M5285 4654 c-231 -220 -403 -360 -535 -432 -67 -36 -419 -119 -795
-187 -223 -40 -312 -64 -440 -115 -190 -75 -425 -213 -487 -285 -58 -66 3
-153 90 -127 18 6 30 6 26 1 -3 -5 -10 -9 -15 -9 -5 0 -45 -21 -89 -46 -65
-38 -81 -52 -91 -81 -17 -52 -6 -123 23 -146 30 -25 125 -19 186 12 23 12 42
20 42 18 0 -3 -34 -32 -75 -66 -56 -47 -77 -71 -84 -98 -12 -42 -5 -80 17
-105 23 -28 123 -24 189 6 94 44 272 173 489 355 49 41 98 81 108 90 11 9 6
-3 -12 -29 -18 -25 -75 -108 -129 -185 -53 -77 -120 -171 -150 -210 -67 -89
-83 -122 -83 -178 0 -38 5 -49 28 -67 22 -18 37 -21 79 -18 96 8 228 118 395
328 55 69 112 130 126 137 201 92 260 113 347 122 60 6 116 20 168 41 95 38
120 33 182 -36 27 -31 70 -60 134 -92 98 -50 127 -76 137 -127 5 -26 -4 -43
-65 -125 -103 -138 -162 -260 -168 -347 -7 -90 17 -150 76 -188 74 -50 122
-18 247 163 48 70 121 164 162 209 87 95 168 212 182 263 14 50 12 123 -6 263
-34 263 19 370 246 492 133 72 132 68 75 222 -25 70 -62 156 -80 192 -19 37
-39 79 -44 94 -6 16 -43 81 -81 145 -142 235 -161 262 -189 262 -9 -1 -70 -52
-136 -116z"/>

<path fill="#035378" d="M1734 3084 c-18 -9 -62 -41 -99 -72 -121 -102 -149 -121 -233 -164
-123 -63 -182 -114 -237 -204 -97 -161 -240 -320 -317 -354 -52 -23 -166 -51
-453 -110 -110 -23 -210 -48 -222 -56 -48 -30 -39 -72 62 -309 61 -143 173
-363 197 -387 10 -10 30 -18 44 -18 14 0 224 59 467 131 l442 132 265 -7 c146
-3 377 -13 514 -21 l249 -14 191 34 c406 72 602 132 636 195 11 21 13 60 4 84
-6 17 -7 17 -372 -15 -204 -17 -333 -23 -307 -14 16 6 344 35 570 49 116 8
221 19 235 24 43 17 64 49 65 98 0 43 1 44 31 44 40 0 55 19 62 76 12 110 -75
153 -253 124 -137 -21 -517 -60 -581 -58 -42 1 -53 3 -29 5 136 12 368 35 475
48 69 8 131 15 138 15 19 0 14 44 -11 81 -43 65 -77 74 -297 74 -107 0 -281
-4 -386 -9 -164 -8 -204 -7 -290 8 -124 22 -448 99 -531 127 -77 25 -82 45
-22 86 90 62 139 105 154 133 19 37 20 149 1 195 -25 59 -98 81 -162 49z"/>

</g>
</svg>
